<?xml version="1.0" encoding="UTF-8" standalone="no"?>
<!-- Created with Inkscape (http://www.inkscape.org/) -->

<svg
   width="64mm"
   height="64mm"
   viewBox="0 0 63.999999 64.000001"
   version="1.1"
   id="svg1"
   xml:space="preserve"
   inkscape:version="1.3 (0e150ed6c4, 2023-07-21)"
   sodipodi:docname="clip_serve_logo.svg"
   xmlns:inkscape="http://www.inkscape.org/namespaces/inkscape"
   xmlns:sodipodi="http://sodipodi.sourceforge.net/DTD/sodipodi-0.dtd"
   xmlns="http://www.w3.org/2000/svg"
   xmlns:svg="http://www.w3.org/2000/svg"><sodipodi:namedview
     id="namedview1"
     pagecolor="#505050"
     bordercolor="#eeeeee"
     borderopacity="1"
     inkscape:showpageshadow="0"
     inkscape:pageopacity="0"
     inkscape:pagecheckerboard="0"
     inkscape:deskcolor="#d1d1d1"
     inkscape:document-units="mm"
     inkscape:zoom="3.0060173"
     inkscape:cx="130.73777"
     inkscape:cy="131.23677"
     inkscape:window-width="2560"
     inkscape:window-height="1369"
     inkscape:window-x="-8"
     inkscape:window-y="-8"
     inkscape:window-maximized="1"
     inkscape:current-layer="layer1" /><defs
     id="defs1" /><g
     inkscape:label="Livello 1"
     inkscape:groupmode="layer"
     id="layer1"
     transform="translate(-76.559141,226.12221)"><path
       d="m 92.947391,-178.25207 c -4.314529,0 -7.995127,-1.4855 -11.041795,-4.4565 -3.046669,-2.98989 -4.570004,-6.63261 -4.570004,-10.92818 0,-3.69008 1.107009,-6.98275 3.321026,-9.87801 2.232969,-2.89525 5.147179,-4.74029 8.742632,-5.53511 1.192191,-4.35236 3.557618,-7.87211 7.096282,-10.55924 3.557548,-2.70601 7.578768,-4.05902 12.063658,-4.05902 5.54455,0 10.23754,1.93018 14.07895,5.79055 3.86037,3.84141 5.79056,8.5344 5.79056,14.07895 3.27375,0.37835 5.97979,1.79759 8.11814,4.25771 2.15723,2.42221 3.23585,5.26072 3.23585,8.51551 0,3.55763 -1.23947,6.57594 -3.7184,9.05494 -2.47893,2.47893 -5.4972,3.7184 -9.05482,3.7184 z"
       id="path16"
       style="fill:#a0b1b5;fill-opacity:1;stroke:#000000;stroke-width:1.5;stroke-linecap:round;stroke-linejoin:round;stroke-dasharray:none;stroke-opacity:1"
       sodipodi:nodetypes="scscccscccssss" /><path
       d="m 129.60908,-190.34677 v -8.20668 a 1.3677801,1.3677801 0 0 0 -1.36779,-1.36779 h -8.20668 a 1.3677801,1.3677801 0 0 0 -1.36776,1.36779 v 8.20668 a 1.3677801,1.3677801 0 0 0 1.36776,1.36776 h 8.20668 a 1.3677801,1.3677801 0 0 0 1.36779,-1.36776 m -7.5228,-2.73558 1.38832,1.85334 2.03113,-2.53721 2.73556,3.41946 h -8.20668 z m -6.15501,-4.10335 v 9.5745 a 1.3677801,1.3677801 0 0 0 1.36779,1.36779 h 9.57447 v -1.36779 h -9.57447 v -9.5745 z"
       id="path3"
       style="fill:#000000;fill-opacity:1;stroke:#000000;stroke-width:0.2;stroke-linecap:round;stroke-linejoin:round;stroke-dasharray:none;stroke-opacity:1;paint-order:fill markers stroke" /><path
       d="m 92.671765,-188.33557 1.515209,-1.51523 h -3.669569 v -1.43623 h 5.026789 v 0.0861 l 1.52242,-1.52242 h -6.549209 v -1.43621 h 7.181129 v 0.80428 l 0.89048,-0.88329 c 0.3447,-0.34469 0.79709,-0.53856 1.29261,-0.53856 0.236936,0 0.473936,0.0503 0.689376,0.13653 v -3.82756 c 0,-0.79711 -0.646306,-1.43623 -1.436226,-1.43623 h -10.05359 c -0.79709,0 -1.43621,0.63912 -1.43621,1.43623 v 10.05357 c 0,0.79712 0.64629,1.43624 1.43621,1.43624 h 3.590581 v -1.35724 m -2.15436,-8.69635 h 7.181129 v 1.43623 h -7.181129 v -1.43623 m 10.556275,5.27814 -0.71812,0.71813 -1.472106,-1.47216 0.7181,-0.7181 c 0.1509,-0.1509 0.402136,-0.1509 0.552936,0 l 0.91919,0.91917 c 0.15092,0.15089 0.15092,0.40215 0,0.55294 m -6.965696,4.01425 4.35177,-4.35174 1.47212,1.4721 -4.34457,4.35895 h -1.47932 z"
       id="path10"
       style="fill:#000000;fill-opacity:1;stroke:#000000;stroke-width:0.2;stroke-linecap:round;stroke-linejoin:round;stroke-dasharray:none;stroke-opacity:1" /><path
       d="m 108.55906,-214.46537 a 7.1720597,7.1720597 0 0 0 -7.17207,7.17208 7.1720597,7.1720597 0 0 0 7.17207,7.17205 7.1720597,7.1720597 0 0 0 7.17205,-7.17205 c 0,-0.83197 -0.15071,-1.65676 -0.4375,-2.43134 l -1.14753,1.14752 c 0.1003,0.42317 0.15072,0.8535 0.15072,1.28382 a 5.7376479,5.7376479 0 0 1 -5.73763,5.73763 5.7376479,5.7376479 0 0 1 -5.73765,-5.73763 5.7376479,5.7376479 0 0 1 5.73765,-5.73766 c 0.43033,0 0.86065,0.0501 1.28379,0.15071 l 1.1547,-1.1547 c -0.78176,-0.27969 -1.60655,-0.43032 -2.43849,-0.43032 m 5.02044,0 -2.86882,2.86884 v 1.07579 l -1.82888,1.82889 c -0.10762,-0.0358 -0.21523,-0.0358 -0.32274,-0.0358 a 1.434412,1.434412 0 0 0 -1.43442,1.43443 1.434412,1.434412 0 0 0 1.43442,1.43439 1.434412,1.434412 0 0 0 1.4344,-1.43439 c 0,-0.10762 0,-0.21523 -0.0358,-0.32277 l 1.82888,-1.82885 h 1.07581 l 2.86882,-2.86884 h -2.15161 v -2.15162 m -5.02043,2.86884 a 4.3032359,4.3032359 0 0 0 -4.30324,4.30324 4.3032359,4.3032359 0 0 0 4.30324,4.30323 4.3032359,4.3032359 0 0 0 4.30322,-4.30323 h -1.43441 a 2.8688238,2.8688238 0 0 1 -2.86881,2.86881 2.8688238,2.8688238 0 0 1 -2.86884,-2.86881 2.8688238,2.8688238 0 0 1 2.86884,-2.86885 z"
       id="path17"
       style="fill:#000000;fill-opacity:1;stroke:#000000;stroke-width:0.2;stroke-linecap:round;stroke-linejoin:round;stroke-dasharray:none;stroke-opacity:1" /><path
       d="m 107.65991,-176.68429 -4.47765,-1.31017 9.93717,-10.70315 -2.09626,7.16423 4.47761,1.31016 -9.93714,10.70313 z"
       id="path2"
       style="fill:#ffc857;fill-opacity:1;stroke:#000000;stroke-width:1.2;stroke-linecap:round;stroke-linejoin:round;stroke-dasharray:none;stroke-opacity:1" /><path
       d="m 96.722329,-171.59033 -4.47766,-1.31017 9.937181,-10.70315 -2.09626,7.16423 4.4776,1.31016 -9.937131,10.70313 z"
       id="path2-4"
       style="fill:#ffc857;fill-opacity:1;stroke:#000000;stroke-width:1.2;stroke-linecap:round;stroke-linejoin:round;stroke-dasharray:none;stroke-opacity:1" /><path
       d="m 116.90827,-171.59032 -4.47766,-1.31017 9.93717,-10.70315 -2.09625,7.16423 4.4776,1.31016 -9.93713,10.70312 z"
       id="path2-4-0"
       style="fill:#ffc857;fill-opacity:1;stroke:#000000;stroke-width:1.2;stroke-linecap:round;stroke-linejoin:round;stroke-dasharray:none;stroke-opacity:1" /></g></svg>
